<?xml version="1.0" encoding="UTF-8" standalone="no"?>
<!DOCTYPE svg PUBLIC "-//W3C//DTD SVG 1.1//EN" "http://www.w3.org/Graphics/SVG/1.1/DTD/svg11.dtd">
<svg width="100%" height="100%" viewBox="0 0 1000 1000" version="1.1" xmlns="http://www.w3.org/2000/svg" xmlns:xlink="http://www.w3.org/1999/xlink" xml:space="preserve" xmlns:serif="http://www.serif.com/" style="fill-rule:evenodd;clip-rule:evenodd;stroke-linejoin:round;stroke-miterlimit:2;">
    <g transform="matrix(1,0,0,1,529.344,320.75)">
        <g>
            <path d="M0,0C8.772,7.252 14.4,17.07 16.656,28.25C17.411,38.438 16.246,46.621 12.656,56.25C12.326,57.24 11.996,58.23 11.656,59.25C12.346,59.602 13.036,59.954 13.746,60.316C20.278,63.748 26.013,67.509 31.656,72.25C32.749,73.124 32.749,73.124 33.863,74.016C49.919,87.4 60.824,107.612 63.656,128.25C64.89,128.246 66.125,128.241 67.396,128.237C79.077,128.196 90.757,128.166 102.437,128.146C108.441,128.136 114.445,128.122 120.448,128.099C126.251,128.077 132.054,128.065 137.858,128.06C140.062,128.057 142.267,128.049 144.471,128.039C168.746,127.924 189.814,129.84 208.344,147.375C222.213,161.916 227.444,177.689 227.25,197.373C226.599,215.585 219.337,229.329 206.656,242.25C205.734,243.209 205.734,243.209 204.793,244.188C189.929,258.446 170.245,260.25 150.656,260.25L150.656,229.25C153.585,229.003 156.514,228.755 159.531,228.5C170.957,227.361 179.69,224.997 187.656,216.25C194.713,206.966 195.557,197.548 194.656,186.25C193.809,182.848 192.547,180.189 190.656,177.25C190.232,176.555 189.808,175.86 189.371,175.145C184.68,168.18 177.875,163.215 169.656,161.25C164.784,160.436 160.128,160.132 155.191,160.152C154.513,160.154 153.835,160.155 153.136,160.157C150.997,160.162 148.858,160.175 146.719,160.188C145.257,160.193 143.796,160.197 142.334,160.201C138.775,160.212 135.215,160.229 131.656,160.25C131.509,161.378 131.362,162.506 131.211,163.668C127.55,190.047 118.949,214.333 103.656,236.25C103.252,236.829 102.849,237.408 102.433,238.004C87.513,258.947 68.172,275.142 45.656,287.25C47.163,298.151 49.417,308.822 51.775,319.563C52.252,321.741 52.724,323.919 53.195,326.098C53.616,328.016 53.616,328.016 54.045,329.973C54.656,333.25 54.656,333.25 54.656,337.25L85.656,337.25L85.656,368.25L-143.344,368.25L-143.344,337.25L-112.344,337.25C-112.014,334.28 -111.684,331.31 -111.344,328.25C-110.768,325.314 -110.164,322.41 -109.496,319.496C-109.32,318.71 -109.144,317.923 -108.962,317.113C-108.406,314.637 -107.844,312.162 -107.281,309.688C-106.9,307.994 -106.519,306.301 -106.139,304.607C-105.212,300.487 -104.28,296.368 -103.344,292.25C-104.281,291.986 -104.281,291.986 -105.237,291.717C-110.917,290.072 -116.329,288.179 -121.719,285.75C-122.48,285.407 -123.241,285.065 -124.025,284.712C-145.125,275.021 -164.016,262.671 -181.344,247.25C-181.852,246.803 -182.361,246.356 -182.885,245.896C-199.83,230.975 -213.038,213.485 -226.013,195.124C-228.539,191.567 -231.1,188.035 -233.656,184.5C-234.204,183.742 -234.752,182.984 -235.316,182.203C-236.434,180.657 -237.552,179.111 -238.67,177.564C-241.396,173.794 -244.12,170.022 -246.844,166.25C-247.927,164.75 -249.01,163.25 -250.094,161.75C-256.594,152.75 -256.594,152.75 -258.22,150.498C-259.298,149.006 -260.376,147.514 -261.453,146.022C-264.251,142.149 -267.047,138.275 -269.84,134.398C-270.416,133.599 -270.992,132.8 -271.586,131.977C-272.676,130.464 -273.766,128.951 -274.855,127.438C-275.606,126.397 -275.606,126.397 -276.371,125.336C-276.802,124.738 -277.232,124.141 -277.676,123.525C-279.193,121.292 -279.193,121.292 -280.852,119.9C-286.184,114.464 -285.954,108.814 -285.916,101.623C-285.87,98.998 -285.795,96.374 -285.719,93.75C-285.689,91.956 -285.661,90.161 -285.637,88.367C-285.571,83.994 -285.468,79.622 -285.344,75.25C-273.557,74.925 -261.77,74.676 -249.98,74.525C-244.503,74.452 -239.03,74.353 -233.556,74.194C-228.264,74.041 -222.976,73.958 -217.683,73.922C-215.672,73.896 -213.661,73.846 -211.651,73.77C-195.11,73.17 -195.11,73.17 -189.517,78.262C-186.853,81.137 -184.614,84.215 -182.494,87.506C-180.774,90.114 -178.782,92.479 -176.781,94.875C-176.062,95.752 -175.343,96.628 -174.602,97.531C-173.856,98.428 -173.111,99.326 -172.344,100.25C-171.516,101.25 -170.689,102.251 -169.836,103.281C-157.052,118.259 -140.927,125.847 -121.344,128.25C-121.208,127.425 -121.073,126.6 -120.934,125.75C-116.49,101.911 -103.119,81.49 -83.395,67.266C-78.871,64.277 -74.187,61.681 -69.344,59.25C-69.621,58.514 -69.898,57.778 -70.184,57.02C-70.546,56.044 -70.908,55.068 -71.281,54.063C-71.821,52.618 -71.821,52.618 -72.371,51.145C-76.271,39.54 -75.284,27.011 -70.313,15.957C-64.521,4.589 -55.877,-2.863 -44.094,-7.563C-28.651,-12.453 -12.929,-9.654 0,0ZM-40.746,26.828C-43.374,30.981 -43.956,34.441 -43.344,39.25C-41.355,44.587 -38.437,47.703 -33.344,50.25C-28.637,50.824 -25.222,50.706 -20.969,48.5C-16.585,44.742 -14.593,41.844 -14.031,36C-14.395,31.63 -15.444,28.513 -18.344,25.25C-21.623,22.923 -24.909,21.537 -28.844,20.75C-33.407,21.663 -37.599,23.287 -40.746,26.828ZM-74.344,101.25C-74.975,101.862 -75.607,102.475 -76.258,103.105C-82.818,109.882 -87.504,119.052 -89.344,128.25L31.656,128.25C27.832,115.504 22.885,107.676 13.656,98.25C13.138,97.696 12.62,97.141 12.086,96.57C1.502,86.319 -14.498,81.572 -28.844,80.875C-46.58,81.737 -62.075,88.411 -74.344,101.25ZM-250.344,106.25C-248.219,110.033 -246.13,113.733 -243.566,117.238C-243.06,117.935 -242.553,118.632 -242.031,119.35C-241.495,120.08 -240.959,120.81 -240.406,121.563C-239.241,123.163 -238.075,124.763 -236.91,126.363C-236.317,127.175 -235.725,127.987 -235.114,128.823C-232.343,132.622 -229.594,136.436 -226.844,140.25C-225.761,141.75 -224.677,143.25 -223.594,144.75C-217.094,153.75 -217.094,153.75 -215.469,156C-214.386,157.499 -213.304,158.997 -212.221,160.496C-209.496,164.267 -206.774,168.041 -204.059,171.82C-200.833,176.306 -197.593,180.781 -194.344,185.25C-193.572,186.314 -193.572,186.314 -192.785,187.4C-186.549,195.973 -180.15,204.147 -172.771,211.771C-171.287,213.308 -169.826,214.865 -168.363,216.422C-156.645,228.702 -143.132,238.925 -128.344,247.25C-127.662,247.638 -126.979,248.025 -126.276,248.424C-86.61,270.768 -38.045,281.46 6.629,269.413C23.821,264.471 40.159,256.005 53.656,244.25C54.476,243.551 55.296,242.853 56.141,242.133C77.911,223.134 96.538,194.709 99.656,165.25C99.665,163.25 99.666,161.25 99.656,159.25C98.479,159.248 97.301,159.245 96.088,159.243C68.087,159.185 40.087,159.113 12.087,159.021C8.635,159.01 5.183,158.999 1.731,158.988C1.044,158.985 0.357,158.983 -0.351,158.981C-11.454,158.946 -22.557,158.921 -33.661,158.9C-45.067,158.878 -56.473,158.845 -67.88,158.801C-74.281,158.777 -80.682,158.759 -87.083,158.752C-93.116,158.746 -99.149,158.726 -105.182,158.696C-107.388,158.687 -109.595,158.683 -111.801,158.685C-123.377,158.691 -134.134,158.452 -145.344,155.25C-146.106,155.033 -146.869,154.816 -147.654,154.592C-167.94,148.285 -182.436,135.974 -196.48,120.563C-196.932,120.081 -197.383,119.599 -197.847,119.103C-199.344,117.25 -199.344,117.25 -200.92,114.45C-203.45,110.43 -205.714,106.938 -210.534,105.677C-216.98,104.865 -223.436,105.249 -229.906,105.563C-231.889,105.618 -233.871,105.668 -235.854,105.713C-240.687,105.834 -245.514,106.023 -250.344,106.25ZM5.531,300.625C-20.718,306.365 -46.994,304.533 -73.344,300.25C-74.347,304.714 -75.344,309.18 -76.334,313.647C-76.672,315.166 -77.012,316.683 -77.353,318.201C-77.845,320.387 -78.329,322.574 -78.813,324.762C-79.042,325.773 -79.042,325.773 -79.276,326.805C-80.076,330.457 -80.344,333.454 -80.344,337.25L22.656,337.25C22.032,331.634 21.398,326.491 20.246,321.027C19.979,319.748 19.711,318.469 19.436,317.15C19.155,315.829 18.874,314.508 18.594,313.188C18.309,311.831 18.024,310.475 17.74,309.119C17.049,305.829 16.355,302.539 15.656,299.25C11.915,299.25 9.144,299.762 5.531,300.625Z" style="fill:rgb(113,57,69);fill-opacity:0.47;fill-rule:nonzero;"/>
            <g transform="matrix(1.70781,0,0,1.70781,-1017.54,-629.489)">
                <path d="M871.408,121.073L887.534,164.654L931.115,180.78L887.534,196.907L871.408,240.488L855.281,196.907L811.7,180.78L855.281,164.654L871.408,121.073Z" style="fill:rgb(113,57,69);fill-opacity:0.47;"/>
            </g>
            <g transform="matrix(1.70781,0,0,1.70781,-1017.54,370.511)">
                <path d="M871.408,121.073L887.534,164.654L931.115,180.78L887.534,196.907L871.408,240.488L855.281,196.907L811.7,180.78L855.281,164.654L871.408,121.073Z" style="fill:rgb(113,57,69);fill-opacity:0.47;"/>
            </g>
            <g transform="matrix(1.70781,0,0,1.70781,-2017.54,-629.489)">
                <path d="M871.408,121.073L887.534,164.654L931.115,180.78L887.534,196.907L871.408,240.488L855.281,196.907L811.7,180.78L855.281,164.654L871.408,121.073Z" style="fill:rgb(113,57,69);fill-opacity:0.47;"/>
            </g>
            <g transform="matrix(1.70781,0,0,1.70781,-2017.54,370.511)">
                <path d="M871.408,121.073L887.534,164.654L931.115,180.78L887.534,196.907L871.408,240.488L855.281,196.907L811.7,180.78L855.281,164.654L871.408,121.073Z" style="fill:rgb(113,57,69);fill-opacity:0.47;"/>
            </g>
        </g>
    </g>
</svg>
