<?xml version="1.0" encoding="UTF-8" standalone="no"?>
<!DOCTYPE svg PUBLIC "-//W3C//DTD SVG 1.1//EN" "http://www.w3.org/Graphics/SVG/1.1/DTD/svg11.dtd">
<svg width="100%" height="100%" viewBox="0 0 1080 1080" version="1.1" xmlns="http://www.w3.org/2000/svg" xmlns:xlink="http://www.w3.org/1999/xlink" xml:space="preserve" xmlns:serif="http://www.serif.com/" style="fill-rule:evenodd;clip-rule:evenodd;stroke-linejoin:round;stroke-miterlimit:2;">
    <g transform="matrix(0.451879,0,0,0.451879,-10.2318,-133.234)">
        <path d="M0,0C1.577,-0.003 3.154,-0.007 4.73,-0.01C8.021,-0.016 11.312,-0.018 14.604,-0.017C17.919,-0.017 21.235,-0.024 24.551,-0.038C88.472,-0.298 88.472,-0.298 104.359,6.168C106.351,6.549 108.352,6.881 110.359,7.168C114.35,7.738 117.643,8.634 121.359,10.168C123.395,10.712 125.438,11.23 127.484,11.73C159.314,19.965 190.361,30.504 211.297,57.105C221.599,69.955 233.712,81.924 247.359,91.168C256.246,97.258 263.994,104.146 271.734,111.605C273.047,112.868 274.375,114.114 275.707,115.355C289.734,128.72 300.206,146.046 310.109,162.543C310.54,163.25 310.971,163.958 311.414,164.687C313.48,168.197 314.359,170.003 314.359,174.168L316.359,174.168C316.686,175.086 317.012,176.004 317.348,176.949C317.785,178.176 318.222,179.404 318.672,180.668C319.101,181.875 319.53,183.081 319.973,184.324C320.908,186.941 321.88,189.541 322.871,192.137C338.42,233.493 338.023,282.142 321.359,323.168C320.39,325.212 319.374,327.225 318.334,329.235C316.864,332.149 315.641,335.167 314.359,338.168C309.115,349.053 302.764,358.641 295.359,368.168C294.653,369.1 293.947,370.032 293.219,370.992C282.672,384.457 270.099,396.053 256.359,406.168C255.439,406.86 254.519,407.552 253.57,408.266C250.861,410.275 248.12,412.229 245.359,414.168C244.347,414.89 243.336,415.612 242.293,416.355C231.013,424.234 218.903,430.707 206.834,437.276C203.501,439.091 200.172,440.914 196.844,442.738C166.393,459.384 166.393,459.384 150.359,465.168C149.067,465.667 147.775,466.166 146.484,466.668C145.111,467.171 143.735,467.671 142.359,468.168C141.215,468.595 140.07,469.021 138.891,469.461C131.658,472.076 125.152,473.993 117.359,473.168L117.359,475.168C92.081,477.379 66.142,477.143 41.359,471.168L41.359,469.168C40.328,469.25 39.297,469.333 38.234,469.418C29.051,469.434 19.807,465.538 11.359,462.168C9.276,461.376 7.193,460.584 5.109,459.793C2.852,458.933 0.604,458.06 -1.641,457.168C-2.514,456.824 -3.388,456.479 -4.288,456.125C-11.928,453.038 -19.159,449.422 -26.391,445.48C-27.523,444.866 -28.655,444.252 -29.822,443.619C-54.676,430.025 -70.775,418.927 -79.641,391.168C-88.525,358.545 -83.383,317.915 -73.328,286.361C-72.706,284.376 -72.139,282.374 -71.578,280.371C-67.052,264.302 -58.571,253.135 -44.203,244.441C-40.882,242.791 -38.327,242.25 -34.641,242.168L-34.641,240.168C-29.253,237.775 -24.342,237.635 -18.516,237.418C-17.453,237.377 -16.391,237.336 -15.297,237.294C-8.548,237.098 -1.92,237.228 4.797,237.918C5.534,237.992 6.271,238.066 7.03,238.142C11.629,238.703 15.779,239.864 20.143,241.405C22.248,242.13 24.349,242.739 26.5,243.309C42.609,247.619 55.615,253.627 64.484,268.238C67.682,273.234 71.501,277.675 75.359,282.168C76.128,283.083 76.896,283.998 77.688,284.941C84.233,292.714 84.233,292.714 93.395,296.535C96.808,296.752 99.115,296.301 102.109,294.668C111.546,284.183 112.067,269.58 111.48,256.188C111.211,251.701 110.481,247.515 109.359,243.168C109.209,242.546 109.058,241.924 108.903,241.283C103.126,217.776 89.082,198.804 68.486,186.004C60.169,181.094 51.474,177.356 42.359,174.168C41.549,173.871 40.738,173.575 39.902,173.27C35.377,171.669 30.881,170.577 26.164,169.703C21.736,168.858 17.346,167.842 12.949,166.852C-11.414,162.212 -35.36,165.104 -58.458,173.398C-60.169,174.002 -61.9,174.549 -63.637,175.074C-77.358,180.07 -90.183,188.214 -101.641,197.168C-103.116,198.311 -103.116,198.311 -104.621,199.477C-117.622,209.824 -125.319,217.648 -128.578,234.043C-132.7,253.456 -138.515,269.677 -148.953,286.605C-154.791,296.272 -156.221,304.165 -156.066,315.453C-156.061,316.804 -156.058,318.155 -156.056,319.506C-156.049,322.314 -156.028,325.122 -155.997,327.929C-155.957,331.534 -155.94,335.139 -155.93,338.744C-155.92,342.189 -155.9,345.633 -155.879,349.078C-155.872,350.376 -155.864,351.674 -155.857,353.011C-155.837,354.794 -155.837,354.794 -155.818,356.614C-155.808,357.665 -155.798,358.716 -155.788,359.799C-155.906,362.124 -155.906,362.124 -154.641,363.168C-154.346,364.955 -154.056,366.744 -153.793,368.536C-152.362,378.041 -149.653,386.412 -145.641,395.168C-145.275,395.978 -144.91,396.788 -144.533,397.623C-128.343,433.326 -104.642,463.971 -77.641,492.168C-76.915,492.933 -76.189,493.698 -75.441,494.487C-73.127,496.917 -70.793,499.325 -68.453,501.73C-67.741,502.48 -67.03,503.23 -66.296,504.003C-48.907,521.659 -21.941,523.439 1.538,523.629C4.999,523.636 8.46,523.624 11.922,523.605C13.113,523.603 14.304,523.6 15.531,523.597C38.678,523.517 60.167,521.635 82.37,514.766C85.634,513.785 88.934,512.956 92.234,512.105C102.842,509.28 113.069,505.567 123.348,501.742C127.868,500.065 132.397,498.465 136.984,496.98C141.134,495.624 145.078,494.054 149.039,492.223C151.662,491.031 154.317,489.944 156.984,488.855C169.583,483.63 181.835,477.546 194.109,471.605C194.811,471.267 195.512,470.928 196.235,470.579C207.665,465.051 218.97,459.312 230.171,453.334C231.21,452.784 232.25,452.234 233.32,451.668C234.226,451.183 235.131,450.699 236.064,450.199C238.359,449.168 238.359,449.168 241.359,449.168L241.359,447.168C244.105,445.825 246.855,444.493 249.609,443.168C250.387,442.786 251.164,442.405 251.965,442.012C253.096,441.47 253.096,441.47 254.25,440.918C254.941,440.583 255.633,440.248 256.345,439.902C258.359,439.168 258.359,439.168 262.359,439.168C262.985,444.146 260.844,447.335 258.234,451.355C257.794,452.046 257.354,452.737 256.901,453.448C251.267,462.1 244.823,470.13 238.359,478.168C237.543,479.199 236.727,480.23 235.887,481.293C228.427,490.607 220.496,499.864 211.309,507.523C209.944,508.675 208.615,509.869 207.316,511.094C184.61,532.471 156.042,549.168 127.43,561.273C126.097,561.849 124.773,562.446 123.461,563.067C116.17,566.491 108.537,568.95 100.904,571.487C98.494,572.29 96.089,573.105 93.684,573.922C86.354,576.383 79.193,578.694 71.519,579.839C69.362,580.129 69.362,580.129 67.305,580.708C64.331,581.411 61.4,581.226 58.359,581.168L58.359,583.168C15.002,589.89 -29.147,593.038 -72.641,585.168C-72.971,584.838 -73.301,584.508 -73.641,584.168C-76.016,583.863 -78.384,583.601 -80.766,583.355C-88.27,582.495 -95.353,580.868 -102.613,578.752C-104.825,578.115 -107.044,577.506 -109.266,576.902C-124.143,572.852 -138.924,568.364 -152.613,561.129C-155.085,559.957 -157.618,559.125 -160.203,558.23C-176.89,551.924 -192.271,541.613 -206.641,531.168C-207.693,530.422 -208.744,529.675 -209.828,528.906C-217.661,523.226 -224.673,516.853 -231.641,510.168C-232.591,509.271 -233.541,508.374 -234.52,507.449C-246.001,496.343 -255.088,483.596 -263.641,470.168C-264.051,469.532 -264.462,468.896 -264.885,468.24C-269.524,461.014 -273.377,454.21 -275.82,445.91C-276.59,443.336 -277.523,440.948 -278.578,438.48C-282.534,428.803 -285.46,418.438 -287.281,408.148C-287.611,406.171 -287.611,406.171 -288.152,404.277C-288.943,400.861 -288.845,397.396 -288.879,393.906C-288.889,393.091 -288.898,392.277 -288.909,391.437C-289.429,336.772 -272.304,295.008 -236.63,253.66C-234.792,251.523 -232.983,249.37 -231.19,247.195C-222.629,236.853 -213.176,227.433 -203.658,217.979C-200.877,215.217 -198.104,212.446 -195.332,209.674C-193.545,207.891 -191.757,206.11 -189.969,204.328C-189.151,203.511 -188.333,202.695 -187.49,201.853C-183.248,197.645 -178.939,193.585 -174.386,189.713C-172.6,188.132 -170.964,186.465 -169.328,184.73C-164.88,180.253 -159.831,176.728 -154.641,173.168C-153.878,172.642 -153.116,172.116 -152.331,171.575C-137.274,161.229 -122.432,152.194 -105.266,145.73C-101.51,144.298 -97.798,142.835 -94.141,141.168C-81.023,135.234 -67.98,131.448 -53.828,129.012C-50.642,128.426 -47.589,127.588 -44.48,126.676C-38.122,124.9 -31.757,124.201 -25.203,123.543C-22.913,123.303 -20.622,123.061 -18.332,122.816C-17.334,122.715 -16.335,122.614 -15.307,122.509C-12.734,122.234 -12.734,122.234 -10.642,121.662C-0.603,119.185 10.555,119.965 20.859,119.98C21.978,119.981 21.978,119.981 23.119,119.982C35.29,120.009 47.298,120.402 59.359,122.168C60.217,122.292 61.075,122.415 61.959,122.542C89.938,126.765 114.918,137.929 132.685,160.88C140.552,171.685 148.423,183.959 151.785,196.98C152.342,199.102 153.05,201.068 153.859,203.105C157.227,211.891 159.011,220.84 160.047,230.168C160.237,231.869 160.237,231.869 160.431,233.605C161.433,243.691 161.627,253.726 161.609,263.855C161.608,264.99 161.608,264.99 161.607,266.147C161.545,286.982 161.545,286.982 159.359,289.168C159.059,291.164 158.795,293.165 158.547,295.168C157.661,301.132 156.175,305.871 153.359,311.168C153.011,311.882 152.663,312.596 152.305,313.332C143.838,329.856 128.696,342.056 111.281,348.266C104.873,349.996 98.528,350.477 91.922,350.605C91.164,350.628 90.407,350.65 89.626,350.674C84.358,350.651 81.627,349.455 77.359,346.168C75.56,345.144 73.748,344.143 71.922,343.168C68.897,341.55 65.961,339.92 63.047,338.105C49.463,330.33 32.451,327.519 17.359,324.168C16.533,323.96 15.707,323.753 14.855,323.539C7.501,321.806 -0.12,321.529 -7.641,322.168C-15.586,330.114 -16.924,346.524 -17.641,357.168C-17.735,358.278 -17.829,359.388 -17.926,360.531C-18.476,372.086 -15.134,383.502 -7.426,392.258C-6.837,392.888 -6.248,393.519 -5.641,394.168C-5.165,394.767 -4.689,395.367 -4.199,395.984C3.277,404.71 16.448,409.582 27.359,412.168C28.103,412.345 28.848,412.522 29.614,412.705C35.895,414.08 41.871,414.474 48.289,414.469C49.821,414.477 49.821,414.477 51.383,414.485C54.667,414.497 57.951,414.491 61.234,414.48C62.35,414.48 63.466,414.479 64.615,414.478C93.42,414.989 93.42,414.989 121.359,409.168C123.604,408.684 125.854,408.227 128.109,407.793C134.249,406.493 139.661,404.76 145.359,402.168C145.982,401.899 146.605,401.629 147.247,401.352C157.319,396.994 165.899,392.245 174.359,385.168C175.521,384.25 175.521,384.25 176.707,383.313C183.704,377.525 188.936,370.383 194.359,363.168C195.177,362.095 195.994,361.022 196.813,359.949C199.018,357.039 201.192,354.107 203.359,351.168C203.964,350.374 204.569,349.58 205.191,348.762C216.683,333.198 221.991,316.449 223.965,297.336C224.359,294.168 224.359,294.168 225.359,292.168C225.574,287.838 225.545,283.504 225.545,279.169C225.547,277.034 225.565,274.899 225.584,272.764C225.632,260.935 224.412,249.536 221.918,237.953C221.464,235.692 221.071,233.441 220.707,231.164C219.542,223.942 218.311,217.103 215.578,210.281C214.587,207.749 213.69,205.226 212.828,202.648C203.856,175.868 190.87,150.825 171.359,130.168C170.612,129.344 169.864,128.521 169.094,127.672C162.321,120.484 154.698,115.333 146.359,110.168C145.289,109.494 144.22,108.82 143.117,108.125C136.744,104.243 130.432,101.5 123.359,99.168C122.044,98.675 120.731,98.176 119.422,97.668C118.068,97.167 116.714,96.667 115.359,96.168C114.595,95.871 113.831,95.575 113.043,95.27C97.069,89.457 79.964,86.861 63.086,85.527C59.359,85.168 59.359,85.168 57.359,84.168C-5.988,76.96 -72.142,81.453 -133.453,99.168C-134.329,99.415 -135.205,99.663 -136.107,99.918C-141.397,101.435 -146.51,103.181 -151.641,105.168C-153.39,105.795 -155.14,106.421 -156.891,107.043C-176.598,114.224 -191.346,125.071 -203.641,142.168C-204.2,142.899 -204.76,143.63 -205.336,144.383C-219.091,162.599 -229.423,182.849 -239.641,203.168C-240.242,204.348 -240.242,204.348 -240.855,205.552C-242.619,209.028 -244.276,212.527 -245.783,216.122C-246.879,218.737 -248.006,221.338 -249.129,223.941C-253.623,234.424 -258.06,244.863 -261.714,255.672C-262.994,259.434 -264.424,263.022 -266.141,266.605C-269.138,272.902 -271.172,279.504 -273.309,286.129C-274.302,289.196 -275.39,292.194 -276.641,295.168L-279.641,295.168C-282.778,282.201 -282.878,269.446 -282.891,256.168C-282.893,254.773 -282.893,254.773 -282.896,253.349C-282.898,235.381 -282.159,217.643 -277.641,200.168C-277.39,198.463 -277.16,196.754 -276.953,195.043C-275.958,188.817 -274.16,182.917 -272.266,176.918C-271.973,175.983 -271.681,175.049 -271.38,174.085C-269.772,169.112 -267.94,164.477 -265.511,159.849C-264.471,157.84 -263.667,155.791 -262.891,153.668C-254.188,131.538 -240.827,111.494 -224.641,94.168C-223.224,92.543 -221.807,90.918 -220.391,89.293C-207.521,75.011 -192.306,63.431 -176.57,52.515C-174.054,50.759 -171.569,48.959 -169.078,47.168C-165.765,44.852 -162.458,42.964 -158.805,41.246C-156.166,39.931 -153.67,38.432 -151.141,36.918C-144.456,32.973 -137.556,29.536 -130.588,26.127C-128.538,25.118 -126.5,24.086 -124.461,23.055C-121.605,21.625 -118.746,20.323 -115.766,19.168C-112.042,17.718 -112.042,17.718 -108.344,16.203C-85.416,6.624 -61.742,3.831 -37.101,2.402C-34.734,2.247 -34.734,2.247 -32.875,1.688C-22.36,-0.759 -10.755,0.005 0,0Z" style="fill:rgb(95,110,93);fill-opacity:0.47;fill-rule:nonzero;"/>
    </g>
    <g transform="matrix(0.451879,0,0,0.451879,1069.77,-133.234)">
        <path d="M0,0C1.577,-0.003 3.154,-0.007 4.73,-0.01C8.021,-0.016 11.312,-0.018 14.604,-0.017C17.919,-0.017 21.235,-0.024 24.551,-0.038C88.472,-0.298 88.472,-0.298 104.359,6.168C106.351,6.549 108.352,6.881 110.359,7.168C114.35,7.738 117.643,8.634 121.359,10.168C123.395,10.712 125.438,11.23 127.484,11.73C159.314,19.965 190.361,30.504 211.297,57.105C221.599,69.955 233.712,81.924 247.359,91.168C256.246,97.258 263.994,104.146 271.734,111.605C273.047,112.868 274.375,114.114 275.707,115.355C289.734,128.72 300.206,146.046 310.109,162.543C310.54,163.25 310.971,163.958 311.414,164.687C313.48,168.197 314.359,170.003 314.359,174.168L316.359,174.168C316.686,175.086 317.012,176.004 317.348,176.949C317.785,178.176 318.222,179.404 318.672,180.668C319.101,181.875 319.53,183.081 319.973,184.324C320.908,186.941 321.88,189.541 322.871,192.137C338.42,233.493 338.023,282.142 321.359,323.168C320.39,325.212 319.374,327.225 318.334,329.235C316.864,332.149 315.641,335.167 314.359,338.168C309.115,349.053 302.764,358.641 295.359,368.168C294.653,369.1 293.947,370.032 293.219,370.992C282.672,384.457 270.099,396.053 256.359,406.168C255.439,406.86 254.519,407.552 253.57,408.266C250.861,410.275 248.12,412.229 245.359,414.168C244.347,414.89 243.336,415.612 242.293,416.355C231.013,424.234 218.903,430.707 206.834,437.276C203.501,439.091 200.172,440.914 196.844,442.738C166.393,459.384 166.393,459.384 150.359,465.168C149.067,465.667 147.775,466.166 146.484,466.668C145.111,467.171 143.735,467.671 142.359,468.168C141.215,468.595 140.07,469.021 138.891,469.461C131.658,472.076 125.152,473.993 117.359,473.168L117.359,475.168C92.081,477.379 66.142,477.143 41.359,471.168L41.359,469.168C40.328,469.25 39.297,469.333 38.234,469.418C29.051,469.434 19.807,465.538 11.359,462.168C9.276,461.376 7.193,460.584 5.109,459.793C2.852,458.933 0.604,458.06 -1.641,457.168C-2.514,456.824 -3.388,456.479 -4.288,456.125C-11.928,453.038 -19.159,449.422 -26.391,445.48C-27.523,444.866 -28.655,444.252 -29.822,443.619C-54.676,430.025 -70.775,418.927 -79.641,391.168C-88.525,358.545 -83.383,317.915 -73.328,286.361C-72.706,284.376 -72.139,282.374 -71.578,280.371C-67.052,264.302 -58.571,253.135 -44.203,244.441C-40.882,242.791 -38.327,242.25 -34.641,242.168L-34.641,240.168C-29.253,237.775 -24.342,237.635 -18.516,237.418C-17.453,237.377 -16.391,237.336 -15.297,237.294C-8.548,237.098 -1.92,237.228 4.797,237.918C5.534,237.992 6.271,238.066 7.03,238.142C11.629,238.703 15.779,239.864 20.143,241.405C22.248,242.13 24.349,242.739 26.5,243.309C42.609,247.619 55.615,253.627 64.484,268.238C67.682,273.234 71.501,277.675 75.359,282.168C76.128,283.083 76.896,283.998 77.688,284.941C84.233,292.714 84.233,292.714 93.395,296.535C96.808,296.752 99.115,296.301 102.109,294.668C111.546,284.183 112.067,269.58 111.48,256.188C111.211,251.701 110.481,247.515 109.359,243.168C109.209,242.546 109.058,241.924 108.903,241.283C103.126,217.776 89.082,198.804 68.486,186.004C60.169,181.094 51.474,177.356 42.359,174.168C41.549,173.871 40.738,173.575 39.902,173.27C35.377,171.669 30.881,170.577 26.164,169.703C21.736,168.858 17.346,167.842 12.949,166.852C-11.414,162.212 -35.36,165.104 -58.458,173.398C-60.169,174.002 -61.9,174.549 -63.637,175.074C-77.358,180.07 -90.183,188.214 -101.641,197.168C-103.116,198.311 -103.116,198.311 -104.621,199.477C-117.622,209.824 -125.319,217.648 -128.578,234.043C-132.7,253.456 -138.515,269.677 -148.953,286.605C-154.791,296.272 -156.221,304.165 -156.066,315.453C-156.061,316.804 -156.058,318.155 -156.056,319.506C-156.049,322.314 -156.028,325.122 -155.997,327.929C-155.957,331.534 -155.94,335.139 -155.93,338.744C-155.92,342.189 -155.9,345.633 -155.879,349.078C-155.872,350.376 -155.864,351.674 -155.857,353.011C-155.837,354.794 -155.837,354.794 -155.818,356.614C-155.808,357.665 -155.798,358.716 -155.788,359.799C-155.906,362.124 -155.906,362.124 -154.641,363.168C-154.346,364.955 -154.056,366.744 -153.793,368.536C-152.362,378.041 -149.653,386.412 -145.641,395.168C-145.275,395.978 -144.91,396.788 -144.533,397.623C-128.343,433.326 -104.642,463.971 -77.641,492.168C-76.915,492.933 -76.189,493.698 -75.441,494.487C-73.127,496.917 -70.793,499.325 -68.453,501.73C-67.741,502.48 -67.03,503.23 -66.296,504.003C-48.907,521.659 -21.941,523.439 1.538,523.629C4.999,523.636 8.46,523.624 11.922,523.605C13.113,523.603 14.304,523.6 15.531,523.597C38.678,523.517 60.167,521.635 82.37,514.766C85.634,513.785 88.934,512.956 92.234,512.105C102.842,509.28 113.069,505.567 123.348,501.742C127.868,500.065 132.397,498.465 136.984,496.98C141.134,495.624 145.078,494.054 149.039,492.223C151.662,491.031 154.317,489.944 156.984,488.855C169.583,483.63 181.835,477.546 194.109,471.605C194.811,471.267 195.512,470.928 196.235,470.579C207.665,465.051 218.97,459.312 230.171,453.334C231.21,452.784 232.25,452.234 233.32,451.668C234.226,451.183 235.131,450.699 236.064,450.199C238.359,449.168 238.359,449.168 241.359,449.168L241.359,447.168C244.105,445.825 246.855,444.493 249.609,443.168C250.387,442.786 251.164,442.405 251.965,442.012C253.096,441.47 253.096,441.47 254.25,440.918C254.941,440.583 255.633,440.248 256.345,439.902C258.359,439.168 258.359,439.168 262.359,439.168C262.985,444.146 260.844,447.335 258.234,451.355C257.794,452.046 257.354,452.737 256.901,453.448C251.267,462.1 244.823,470.13 238.359,478.168C237.543,479.199 236.727,480.23 235.887,481.293C228.427,490.607 220.496,499.864 211.309,507.523C209.944,508.675 208.615,509.869 207.316,511.094C184.61,532.471 156.042,549.168 127.43,561.273C126.097,561.849 124.773,562.446 123.461,563.067C116.17,566.491 108.537,568.95 100.904,571.487C98.494,572.29 96.089,573.105 93.684,573.922C86.354,576.383 79.193,578.694 71.519,579.839C69.362,580.129 69.362,580.129 67.305,580.708C64.331,581.411 61.4,581.226 58.359,581.168L58.359,583.168C15.002,589.89 -29.147,593.038 -72.641,585.168C-72.971,584.838 -73.301,584.508 -73.641,584.168C-76.016,583.863 -78.384,583.601 -80.766,583.355C-88.27,582.495 -95.353,580.868 -102.613,578.752C-104.825,578.115 -107.044,577.506 -109.266,576.902C-124.143,572.852 -138.924,568.364 -152.613,561.129C-155.085,559.957 -157.618,559.125 -160.203,558.23C-176.89,551.924 -192.271,541.613 -206.641,531.168C-207.693,530.422 -208.744,529.675 -209.828,528.906C-217.661,523.226 -224.673,516.853 -231.641,510.168C-232.591,509.271 -233.541,508.374 -234.52,507.449C-246.001,496.343 -255.088,483.596 -263.641,470.168C-264.051,469.532 -264.462,468.896 -264.885,468.24C-269.524,461.014 -273.377,454.21 -275.82,445.91C-276.59,443.336 -277.523,440.948 -278.578,438.48C-282.534,428.803 -285.46,418.438 -287.281,408.148C-287.611,406.171 -287.611,406.171 -288.152,404.277C-288.943,400.861 -288.845,397.396 -288.879,393.906C-288.889,393.091 -288.898,392.277 -288.909,391.437C-289.429,336.772 -272.304,295.008 -236.63,253.66C-234.792,251.523 -232.983,249.37 -231.19,247.195C-222.629,236.853 -213.176,227.433 -203.658,217.979C-200.877,215.217 -198.104,212.446 -195.332,209.674C-193.545,207.891 -191.757,206.11 -189.969,204.328C-189.151,203.511 -188.333,202.695 -187.49,201.853C-183.248,197.645 -178.939,193.585 -174.386,189.713C-172.6,188.132 -170.964,186.465 -169.328,184.73C-164.88,180.253 -159.831,176.728 -154.641,173.168C-153.878,172.642 -153.116,172.116 -152.331,171.575C-137.274,161.229 -122.432,152.194 -105.266,145.73C-101.51,144.298 -97.798,142.835 -94.141,141.168C-81.023,135.234 -67.98,131.448 -53.828,129.012C-50.642,128.426 -47.589,127.588 -44.48,126.676C-38.122,124.9 -31.757,124.201 -25.203,123.543C-22.913,123.303 -20.622,123.061 -18.332,122.816C-17.334,122.715 -16.335,122.614 -15.307,122.509C-12.734,122.234 -12.734,122.234 -10.642,121.662C-0.603,119.185 10.555,119.965 20.859,119.98C21.978,119.981 21.978,119.981 23.119,119.982C35.29,120.009 47.298,120.402 59.359,122.168C60.217,122.292 61.075,122.415 61.959,122.542C89.938,126.765 114.918,137.929 132.685,160.88C140.552,171.685 148.423,183.959 151.785,196.98C152.342,199.102 153.05,201.068 153.859,203.105C157.227,211.891 159.011,220.84 160.047,230.168C160.237,231.869 160.237,231.869 160.431,233.605C161.433,243.691 161.627,253.726 161.609,263.855C161.608,264.99 161.608,264.99 161.607,266.147C161.545,286.982 161.545,286.982 159.359,289.168C159.059,291.164 158.795,293.165 158.547,295.168C157.661,301.132 156.175,305.871 153.359,311.168C153.011,311.882 152.663,312.596 152.305,313.332C143.838,329.856 128.696,342.056 111.281,348.266C104.873,349.996 98.528,350.477 91.922,350.605C91.164,350.628 90.407,350.65 89.626,350.674C84.358,350.651 81.627,349.455 77.359,346.168C75.56,345.144 73.748,344.143 71.922,343.168C68.897,341.55 65.961,339.92 63.047,338.105C49.463,330.33 32.451,327.519 17.359,324.168C16.533,323.96 15.707,323.753 14.855,323.539C7.501,321.806 -0.12,321.529 -7.641,322.168C-15.586,330.114 -16.924,346.524 -17.641,357.168C-17.735,358.278 -17.829,359.388 -17.926,360.531C-18.476,372.086 -15.134,383.502 -7.426,392.258C-6.837,392.888 -6.248,393.519 -5.641,394.168C-5.165,394.767 -4.689,395.367 -4.199,395.984C3.277,404.71 16.448,409.582 27.359,412.168C28.103,412.345 28.848,412.522 29.614,412.705C35.895,414.08 41.871,414.474 48.289,414.469C49.821,414.477 49.821,414.477 51.383,414.485C54.667,414.497 57.951,414.491 61.234,414.48C62.35,414.48 63.466,414.479 64.615,414.478C93.42,414.989 93.42,414.989 121.359,409.168C123.604,408.684 125.854,408.227 128.109,407.793C134.249,406.493 139.661,404.76 145.359,402.168C145.982,401.899 146.605,401.629 147.247,401.352C157.319,396.994 165.899,392.245 174.359,385.168C175.521,384.25 175.521,384.25 176.707,383.313C183.704,377.525 188.936,370.383 194.359,363.168C195.177,362.095 195.994,361.022 196.813,359.949C199.018,357.039 201.192,354.107 203.359,351.168C203.964,350.374 204.569,349.58 205.191,348.762C216.683,333.198 221.991,316.449 223.965,297.336C224.359,294.168 224.359,294.168 225.359,292.168C225.574,287.838 225.545,283.504 225.545,279.169C225.547,277.034 225.565,274.899 225.584,272.764C225.632,260.935 224.412,249.536 221.918,237.953C221.464,235.692 221.071,233.441 220.707,231.164C219.542,223.942 218.311,217.103 215.578,210.281C214.587,207.749 213.69,205.226 212.828,202.648C203.856,175.868 190.87,150.825 171.359,130.168C170.612,129.344 169.864,128.521 169.094,127.672C162.321,120.484 154.698,115.333 146.359,110.168C145.289,109.494 144.22,108.82 143.117,108.125C136.744,104.243 130.432,101.5 123.359,99.168C122.044,98.675 120.731,98.176 119.422,97.668C118.068,97.167 116.714,96.667 115.359,96.168C114.595,95.871 113.831,95.575 113.043,95.27C97.069,89.457 79.964,86.861 63.086,85.527C59.359,85.168 59.359,85.168 57.359,84.168C-5.988,76.96 -72.142,81.453 -133.453,99.168C-134.329,99.415 -135.205,99.663 -136.107,99.918C-141.397,101.435 -146.51,103.181 -151.641,105.168C-153.39,105.795 -155.14,106.421 -156.891,107.043C-176.598,114.224 -191.346,125.071 -203.641,142.168C-204.2,142.899 -204.76,143.63 -205.336,144.383C-219.091,162.599 -229.423,182.849 -239.641,203.168C-240.242,204.348 -240.242,204.348 -240.855,205.552C-242.619,209.028 -244.276,212.527 -245.783,216.122C-246.879,218.737 -248.006,221.338 -249.129,223.941C-253.623,234.424 -258.06,244.863 -261.714,255.672C-262.994,259.434 -264.424,263.022 -266.141,266.605C-269.138,272.902 -271.172,279.504 -273.309,286.129C-274.302,289.196 -275.39,292.194 -276.641,295.168L-279.641,295.168C-282.778,282.201 -282.878,269.446 -282.891,256.168C-282.893,254.773 -282.893,254.773 -282.896,253.349C-282.898,235.381 -282.159,217.643 -277.641,200.168C-277.39,198.463 -277.16,196.754 -276.953,195.043C-275.958,188.817 -274.16,182.917 -272.266,176.918C-271.973,175.983 -271.681,175.049 -271.38,174.085C-269.772,169.112 -267.94,164.477 -265.511,159.849C-264.471,157.84 -263.667,155.791 -262.891,153.668C-254.188,131.538 -240.827,111.494 -224.641,94.168C-223.224,92.543 -221.807,90.918 -220.391,89.293C-207.521,75.011 -192.306,63.431 -176.57,52.515C-174.054,50.759 -171.569,48.959 -169.078,47.168C-165.765,44.852 -162.458,42.964 -158.805,41.246C-156.166,39.931 -153.67,38.432 -151.141,36.918C-144.456,32.973 -137.556,29.536 -130.588,26.127C-128.538,25.118 -126.5,24.086 -124.461,23.055C-121.605,21.625 -118.746,20.323 -115.766,19.168C-112.042,17.718 -112.042,17.718 -108.344,16.203C-85.416,6.624 -61.742,3.831 -37.101,2.402C-34.734,2.247 -34.734,2.247 -32.875,1.688C-22.36,-0.759 -10.755,0.005 0,0Z" style="fill:rgb(95,110,93);fill-opacity:0.47;fill-rule:nonzero;"/>
    </g>
    <g transform="matrix(0.451879,0,0,0.451879,1069.77,946.766)">
        <path d="M0,0C1.577,-0.003 3.154,-0.007 4.73,-0.01C8.021,-0.016 11.312,-0.018 14.604,-0.017C17.919,-0.017 21.235,-0.024 24.551,-0.038C88.472,-0.298 88.472,-0.298 104.359,6.168C106.351,6.549 108.352,6.881 110.359,7.168C114.35,7.738 117.643,8.634 121.359,10.168C123.395,10.712 125.438,11.23 127.484,11.73C159.314,19.965 190.361,30.504 211.297,57.105C221.599,69.955 233.712,81.924 247.359,91.168C256.246,97.258 263.994,104.146 271.734,111.605C273.047,112.868 274.375,114.114 275.707,115.355C289.734,128.72 300.206,146.046 310.109,162.543C310.54,163.25 310.971,163.958 311.414,164.687C313.48,168.197 314.359,170.003 314.359,174.168L316.359,174.168C316.686,175.086 317.012,176.004 317.348,176.949C317.785,178.176 318.222,179.404 318.672,180.668C319.101,181.875 319.53,183.081 319.973,184.324C320.908,186.941 321.88,189.541 322.871,192.137C338.42,233.493 338.023,282.142 321.359,323.168C320.39,325.212 319.374,327.225 318.334,329.235C316.864,332.149 315.641,335.167 314.359,338.168C309.115,349.053 302.764,358.641 295.359,368.168C294.653,369.1 293.947,370.032 293.219,370.992C282.672,384.457 270.099,396.053 256.359,406.168C255.439,406.86 254.519,407.552 253.57,408.266C250.861,410.275 248.12,412.229 245.359,414.168C244.347,414.89 243.336,415.612 242.293,416.355C231.013,424.234 218.903,430.707 206.834,437.276C203.501,439.091 200.172,440.914 196.844,442.738C166.393,459.384 166.393,459.384 150.359,465.168C149.067,465.667 147.775,466.166 146.484,466.668C145.111,467.171 143.735,467.671 142.359,468.168C141.215,468.595 140.07,469.021 138.891,469.461C131.658,472.076 125.152,473.993 117.359,473.168L117.359,475.168C92.081,477.379 66.142,477.143 41.359,471.168L41.359,469.168C40.328,469.25 39.297,469.333 38.234,469.418C29.051,469.434 19.807,465.538 11.359,462.168C9.276,461.376 7.193,460.584 5.109,459.793C2.852,458.933 0.604,458.06 -1.641,457.168C-2.514,456.824 -3.388,456.479 -4.288,456.125C-11.928,453.038 -19.159,449.422 -26.391,445.48C-27.523,444.866 -28.655,444.252 -29.822,443.619C-54.676,430.025 -70.775,418.927 -79.641,391.168C-88.525,358.545 -83.383,317.915 -73.328,286.361C-72.706,284.376 -72.139,282.374 -71.578,280.371C-67.052,264.302 -58.571,253.135 -44.203,244.441C-40.882,242.791 -38.327,242.25 -34.641,242.168L-34.641,240.168C-29.253,237.775 -24.342,237.635 -18.516,237.418C-17.453,237.377 -16.391,237.336 -15.297,237.294C-8.548,237.098 -1.92,237.228 4.797,237.918C5.534,237.992 6.271,238.066 7.03,238.142C11.629,238.703 15.779,239.864 20.143,241.405C22.248,242.13 24.349,242.739 26.5,243.309C42.609,247.619 55.615,253.627 64.484,268.238C67.682,273.234 71.501,277.675 75.359,282.168C76.128,283.083 76.896,283.998 77.688,284.941C84.233,292.714 84.233,292.714 93.395,296.535C96.808,296.752 99.115,296.301 102.109,294.668C111.546,284.183 112.067,269.58 111.48,256.188C111.211,251.701 110.481,247.515 109.359,243.168C109.209,242.546 109.058,241.924 108.903,241.283C103.126,217.776 89.082,198.804 68.486,186.004C60.169,181.094 51.474,177.356 42.359,174.168C41.549,173.871 40.738,173.575 39.902,173.27C35.377,171.669 30.881,170.577 26.164,169.703C21.736,168.858 17.346,167.842 12.949,166.852C-11.414,162.212 -35.36,165.104 -58.458,173.398C-60.169,174.002 -61.9,174.549 -63.637,175.074C-77.358,180.07 -90.183,188.214 -101.641,197.168C-103.116,198.311 -103.116,198.311 -104.621,199.477C-117.622,209.824 -125.319,217.648 -128.578,234.043C-132.7,253.456 -138.515,269.677 -148.953,286.605C-154.791,296.272 -156.221,304.165 -156.066,315.453C-156.061,316.804 -156.058,318.155 -156.056,319.506C-156.049,322.314 -156.028,325.122 -155.997,327.929C-155.957,331.534 -155.94,335.139 -155.93,338.744C-155.92,342.189 -155.9,345.633 -155.879,349.078C-155.872,350.376 -155.864,351.674 -155.857,353.011C-155.837,354.794 -155.837,354.794 -155.818,356.614C-155.808,357.665 -155.798,358.716 -155.788,359.799C-155.906,362.124 -155.906,362.124 -154.641,363.168C-154.346,364.955 -154.056,366.744 -153.793,368.536C-152.362,378.041 -149.653,386.412 -145.641,395.168C-145.275,395.978 -144.91,396.788 -144.533,397.623C-128.343,433.326 -104.642,463.971 -77.641,492.168C-76.915,492.933 -76.189,493.698 -75.441,494.487C-73.127,496.917 -70.793,499.325 -68.453,501.73C-67.741,502.48 -67.03,503.23 -66.296,504.003C-48.907,521.659 -21.941,523.439 1.538,523.629C4.999,523.636 8.46,523.624 11.922,523.605C13.113,523.603 14.304,523.6 15.531,523.597C38.678,523.517 60.167,521.635 82.37,514.766C85.634,513.785 88.934,512.956 92.234,512.105C102.842,509.28 113.069,505.567 123.348,501.742C127.868,500.065 132.397,498.465 136.984,496.98C141.134,495.624 145.078,494.054 149.039,492.223C151.662,491.031 154.317,489.944 156.984,488.855C169.583,483.63 181.835,477.546 194.109,471.605C194.811,471.267 195.512,470.928 196.235,470.579C207.665,465.051 218.97,459.312 230.171,453.334C231.21,452.784 232.25,452.234 233.32,451.668C234.226,451.183 235.131,450.699 236.064,450.199C238.359,449.168 238.359,449.168 241.359,449.168L241.359,447.168C244.105,445.825 246.855,444.493 249.609,443.168C250.387,442.786 251.164,442.405 251.965,442.012C253.096,441.47 253.096,441.47 254.25,440.918C254.941,440.583 255.633,440.248 256.345,439.902C258.359,439.168 258.359,439.168 262.359,439.168C262.985,444.146 260.844,447.335 258.234,451.355C257.794,452.046 257.354,452.737 256.901,453.448C251.267,462.1 244.823,470.13 238.359,478.168C237.543,479.199 236.727,480.23 235.887,481.293C228.427,490.607 220.496,499.864 211.309,507.523C209.944,508.675 208.615,509.869 207.316,511.094C184.61,532.471 156.042,549.168 127.43,561.273C126.097,561.849 124.773,562.446 123.461,563.067C116.17,566.491 108.537,568.95 100.904,571.487C98.494,572.29 96.089,573.105 93.684,573.922C86.354,576.383 79.193,578.694 71.519,579.839C69.362,580.129 69.362,580.129 67.305,580.708C64.331,581.411 61.4,581.226 58.359,581.168L58.359,583.168C15.002,589.89 -29.147,593.038 -72.641,585.168C-72.971,584.838 -73.301,584.508 -73.641,584.168C-76.016,583.863 -78.384,583.601 -80.766,583.355C-88.27,582.495 -95.353,580.868 -102.613,578.752C-104.825,578.115 -107.044,577.506 -109.266,576.902C-124.143,572.852 -138.924,568.364 -152.613,561.129C-155.085,559.957 -157.618,559.125 -160.203,558.23C-176.89,551.924 -192.271,541.613 -206.641,531.168C-207.693,530.422 -208.744,529.675 -209.828,528.906C-217.661,523.226 -224.673,516.853 -231.641,510.168C-232.591,509.271 -233.541,508.374 -234.52,507.449C-246.001,496.343 -255.088,483.596 -263.641,470.168C-264.051,469.532 -264.462,468.896 -264.885,468.24C-269.524,461.014 -273.377,454.21 -275.82,445.91C-276.59,443.336 -277.523,440.948 -278.578,438.48C-282.534,428.803 -285.46,418.438 -287.281,408.148C-287.611,406.171 -287.611,406.171 -288.152,404.277C-288.943,400.861 -288.845,397.396 -288.879,393.906C-288.889,393.091 -288.898,392.277 -288.909,391.437C-289.429,336.772 -272.304,295.008 -236.63,253.66C-234.792,251.523 -232.983,249.37 -231.19,247.195C-222.629,236.853 -213.176,227.433 -203.658,217.979C-200.877,215.217 -198.104,212.446 -195.332,209.674C-193.545,207.891 -191.757,206.11 -189.969,204.328C-189.151,203.511 -188.333,202.695 -187.49,201.853C-183.248,197.645 -178.939,193.585 -174.386,189.713C-172.6,188.132 -170.964,186.465 -169.328,184.73C-164.88,180.253 -159.831,176.728 -154.641,173.168C-153.878,172.642 -153.116,172.116 -152.331,171.575C-137.274,161.229 -122.432,152.194 -105.266,145.73C-101.51,144.298 -97.798,142.835 -94.141,141.168C-81.023,135.234 -67.98,131.448 -53.828,129.012C-50.642,128.426 -47.589,127.588 -44.48,126.676C-38.122,124.9 -31.757,124.201 -25.203,123.543C-22.913,123.303 -20.622,123.061 -18.332,122.816C-17.334,122.715 -16.335,122.614 -15.307,122.509C-12.734,122.234 -12.734,122.234 -10.642,121.662C-0.603,119.185 10.555,119.965 20.859,119.98C21.978,119.981 21.978,119.981 23.119,119.982C35.29,120.009 47.298,120.402 59.359,122.168C60.217,122.292 61.075,122.415 61.959,122.542C89.938,126.765 114.918,137.929 132.685,160.88C140.552,171.685 148.423,183.959 151.785,196.98C152.342,199.102 153.05,201.068 153.859,203.105C157.227,211.891 159.011,220.84 160.047,230.168C160.237,231.869 160.237,231.869 160.431,233.605C161.433,243.691 161.627,253.726 161.609,263.855C161.608,264.99 161.608,264.99 161.607,266.147C161.545,286.982 161.545,286.982 159.359,289.168C159.059,291.164 158.795,293.165 158.547,295.168C157.661,301.132 156.175,305.871 153.359,311.168C153.011,311.882 152.663,312.596 152.305,313.332C143.838,329.856 128.696,342.056 111.281,348.266C104.873,349.996 98.528,350.477 91.922,350.605C91.164,350.628 90.407,350.65 89.626,350.674C84.358,350.651 81.627,349.455 77.359,346.168C75.56,345.144 73.748,344.143 71.922,343.168C68.897,341.55 65.961,339.92 63.047,338.105C49.463,330.33 32.451,327.519 17.359,324.168C16.533,323.96 15.707,323.753 14.855,323.539C7.501,321.806 -0.12,321.529 -7.641,322.168C-15.586,330.114 -16.924,346.524 -17.641,357.168C-17.735,358.278 -17.829,359.388 -17.926,360.531C-18.476,372.086 -15.134,383.502 -7.426,392.258C-6.837,392.888 -6.248,393.519 -5.641,394.168C-5.165,394.767 -4.689,395.367 -4.199,395.984C3.277,404.71 16.448,409.582 27.359,412.168C28.103,412.345 28.848,412.522 29.614,412.705C35.895,414.08 41.871,414.474 48.289,414.469C49.821,414.477 49.821,414.477 51.383,414.485C54.667,414.497 57.951,414.491 61.234,414.48C62.35,414.48 63.466,414.479 64.615,414.478C93.42,414.989 93.42,414.989 121.359,409.168C123.604,408.684 125.854,408.227 128.109,407.793C134.249,406.493 139.661,404.76 145.359,402.168C145.982,401.899 146.605,401.629 147.247,401.352C157.319,396.994 165.899,392.245 174.359,385.168C175.521,384.25 175.521,384.25 176.707,383.313C183.704,377.525 188.936,370.383 194.359,363.168C195.177,362.095 195.994,361.022 196.813,359.949C199.018,357.039 201.192,354.107 203.359,351.168C203.964,350.374 204.569,349.58 205.191,348.762C216.683,333.198 221.991,316.449 223.965,297.336C224.359,294.168 224.359,294.168 225.359,292.168C225.574,287.838 225.545,283.504 225.545,279.169C225.547,277.034 225.565,274.899 225.584,272.764C225.632,260.935 224.412,249.536 221.918,237.953C221.464,235.692 221.071,233.441 220.707,231.164C219.542,223.942 218.311,217.103 215.578,210.281C214.587,207.749 213.69,205.226 212.828,202.648C203.856,175.868 190.87,150.825 171.359,130.168C170.612,129.344 169.864,128.521 169.094,127.672C162.321,120.484 154.698,115.333 146.359,110.168C145.289,109.494 144.22,108.82 143.117,108.125C136.744,104.243 130.432,101.5 123.359,99.168C122.044,98.675 120.731,98.176 119.422,97.668C118.068,97.167 116.714,96.667 115.359,96.168C114.595,95.871 113.831,95.575 113.043,95.27C97.069,89.457 79.964,86.861 63.086,85.527C59.359,85.168 59.359,85.168 57.359,84.168C-5.988,76.96 -72.142,81.453 -133.453,99.168C-134.329,99.415 -135.205,99.663 -136.107,99.918C-141.397,101.435 -146.51,103.181 -151.641,105.168C-153.39,105.795 -155.14,106.421 -156.891,107.043C-176.598,114.224 -191.346,125.071 -203.641,142.168C-204.2,142.899 -204.76,143.63 -205.336,144.383C-219.091,162.599 -229.423,182.849 -239.641,203.168C-240.242,204.348 -240.242,204.348 -240.855,205.552C-242.619,209.028 -244.276,212.527 -245.783,216.122C-246.879,218.737 -248.006,221.338 -249.129,223.941C-253.623,234.424 -258.06,244.863 -261.714,255.672C-262.994,259.434 -264.424,263.022 -266.141,266.605C-269.138,272.902 -271.172,279.504 -273.309,286.129C-274.302,289.196 -275.39,292.194 -276.641,295.168L-279.641,295.168C-282.778,282.201 -282.878,269.446 -282.891,256.168C-282.893,254.773 -282.893,254.773 -282.896,253.349C-282.898,235.381 -282.159,217.643 -277.641,200.168C-277.39,198.463 -277.16,196.754 -276.953,195.043C-275.958,188.817 -274.16,182.917 -272.266,176.918C-271.973,175.983 -271.681,175.049 -271.38,174.085C-269.772,169.112 -267.94,164.477 -265.511,159.849C-264.471,157.84 -263.667,155.791 -262.891,153.668C-254.188,131.538 -240.827,111.494 -224.641,94.168C-223.224,92.543 -221.807,90.918 -220.391,89.293C-207.521,75.011 -192.306,63.431 -176.57,52.515C-174.054,50.759 -171.569,48.959 -169.078,47.168C-165.765,44.852 -162.458,42.964 -158.805,41.246C-156.166,39.931 -153.67,38.432 -151.141,36.918C-144.456,32.973 -137.556,29.536 -130.588,26.127C-128.538,25.118 -126.5,24.086 -124.461,23.055C-121.605,21.625 -118.746,20.323 -115.766,19.168C-112.042,17.718 -112.042,17.718 -108.344,16.203C-85.416,6.624 -61.742,3.831 -37.101,2.402C-34.734,2.247 -34.734,2.247 -32.875,1.688C-22.36,-0.759 -10.755,0.005 0,0Z" style="fill:rgb(95,110,93);fill-opacity:0.47;fill-rule:nonzero;"/>
    </g>
    <g transform="matrix(0.451879,0,0,0.451879,-10.2318,946.766)">
        <path d="M0,0C1.577,-0.003 3.154,-0.007 4.73,-0.01C8.021,-0.016 11.312,-0.018 14.604,-0.017C17.919,-0.017 21.235,-0.024 24.551,-0.038C88.472,-0.298 88.472,-0.298 104.359,6.168C106.351,6.549 108.352,6.881 110.359,7.168C114.35,7.738 117.643,8.634 121.359,10.168C123.395,10.712 125.438,11.23 127.484,11.73C159.314,19.965 190.361,30.504 211.297,57.105C221.599,69.955 233.712,81.924 247.359,91.168C256.246,97.258 263.994,104.146 271.734,111.605C273.047,112.868 274.375,114.114 275.707,115.355C289.734,128.72 300.206,146.046 310.109,162.543C310.54,163.25 310.971,163.958 311.414,164.687C313.48,168.197 314.359,170.003 314.359,174.168L316.359,174.168C316.686,175.086 317.012,176.004 317.348,176.949C317.785,178.176 318.222,179.404 318.672,180.668C319.101,181.875 319.53,183.081 319.973,184.324C320.908,186.941 321.88,189.541 322.871,192.137C338.42,233.493 338.023,282.142 321.359,323.168C320.39,325.212 319.374,327.225 318.334,329.235C316.864,332.149 315.641,335.167 314.359,338.168C309.115,349.053 302.764,358.641 295.359,368.168C294.653,369.1 293.947,370.032 293.219,370.992C282.672,384.457 270.099,396.053 256.359,406.168C255.439,406.86 254.519,407.552 253.57,408.266C250.861,410.275 248.12,412.229 245.359,414.168C244.347,414.89 243.336,415.612 242.293,416.355C231.013,424.234 218.903,430.707 206.834,437.276C203.501,439.091 200.172,440.914 196.844,442.738C166.393,459.384 166.393,459.384 150.359,465.168C149.067,465.667 147.775,466.166 146.484,466.668C145.111,467.171 143.735,467.671 142.359,468.168C141.215,468.595 140.07,469.021 138.891,469.461C131.658,472.076 125.152,473.993 117.359,473.168L117.359,475.168C92.081,477.379 66.142,477.143 41.359,471.168L41.359,469.168C40.328,469.25 39.297,469.333 38.234,469.418C29.051,469.434 19.807,465.538 11.359,462.168C9.276,461.376 7.193,460.584 5.109,459.793C2.852,458.933 0.604,458.06 -1.641,457.168C-2.514,456.824 -3.388,456.479 -4.288,456.125C-11.928,453.038 -19.159,449.422 -26.391,445.48C-27.523,444.866 -28.655,444.252 -29.822,443.619C-54.676,430.025 -70.775,418.927 -79.641,391.168C-88.525,358.545 -83.383,317.915 -73.328,286.361C-72.706,284.376 -72.139,282.374 -71.578,280.371C-67.052,264.302 -58.571,253.135 -44.203,244.441C-40.882,242.791 -38.327,242.25 -34.641,242.168L-34.641,240.168C-29.253,237.775 -24.342,237.635 -18.516,237.418C-17.453,237.377 -16.391,237.336 -15.297,237.294C-8.548,237.098 -1.92,237.228 4.797,237.918C5.534,237.992 6.271,238.066 7.03,238.142C11.629,238.703 15.779,239.864 20.143,241.405C22.248,242.13 24.349,242.739 26.5,243.309C42.609,247.619 55.615,253.627 64.484,268.238C67.682,273.234 71.501,277.675 75.359,282.168C76.128,283.083 76.896,283.998 77.688,284.941C84.233,292.714 84.233,292.714 93.395,296.535C96.808,296.752 99.115,296.301 102.109,294.668C111.546,284.183 112.067,269.58 111.48,256.188C111.211,251.701 110.481,247.515 109.359,243.168C109.209,242.546 109.058,241.924 108.903,241.283C103.126,217.776 89.082,198.804 68.486,186.004C60.169,181.094 51.474,177.356 42.359,174.168C41.549,173.871 40.738,173.575 39.902,173.27C35.377,171.669 30.881,170.577 26.164,169.703C21.736,168.858 17.346,167.842 12.949,166.852C-11.414,162.212 -35.36,165.104 -58.458,173.398C-60.169,174.002 -61.9,174.549 -63.637,175.074C-77.358,180.07 -90.183,188.214 -101.641,197.168C-103.116,198.311 -103.116,198.311 -104.621,199.477C-117.622,209.824 -125.319,217.648 -128.578,234.043C-132.7,253.456 -138.515,269.677 -148.953,286.605C-154.791,296.272 -156.221,304.165 -156.066,315.453C-156.061,316.804 -156.058,318.155 -156.056,319.506C-156.049,322.314 -156.028,325.122 -155.997,327.929C-155.957,331.534 -155.94,335.139 -155.93,338.744C-155.92,342.189 -155.9,345.633 -155.879,349.078C-155.872,350.376 -155.864,351.674 -155.857,353.011C-155.837,354.794 -155.837,354.794 -155.818,356.614C-155.808,357.665 -155.798,358.716 -155.788,359.799C-155.906,362.124 -155.906,362.124 -154.641,363.168C-154.346,364.955 -154.056,366.744 -153.793,368.536C-152.362,378.041 -149.653,386.412 -145.641,395.168C-145.275,395.978 -144.91,396.788 -144.533,397.623C-128.343,433.326 -104.642,463.971 -77.641,492.168C-76.915,492.933 -76.189,493.698 -75.441,494.487C-73.127,496.917 -70.793,499.325 -68.453,501.73C-67.741,502.48 -67.03,503.23 -66.296,504.003C-48.907,521.659 -21.941,523.439 1.538,523.629C4.999,523.636 8.46,523.624 11.922,523.605C13.113,523.603 14.304,523.6 15.531,523.597C38.678,523.517 60.167,521.635 82.37,514.766C85.634,513.785 88.934,512.956 92.234,512.105C102.842,509.28 113.069,505.567 123.348,501.742C127.868,500.065 132.397,498.465 136.984,496.98C141.134,495.624 145.078,494.054 149.039,492.223C151.662,491.031 154.317,489.944 156.984,488.855C169.583,483.63 181.835,477.546 194.109,471.605C194.811,471.267 195.512,470.928 196.235,470.579C207.665,465.051 218.97,459.312 230.171,453.334C231.21,452.784 232.25,452.234 233.32,451.668C234.226,451.183 235.131,450.699 236.064,450.199C238.359,449.168 238.359,449.168 241.359,449.168L241.359,447.168C244.105,445.825 246.855,444.493 249.609,443.168C250.387,442.786 251.164,442.405 251.965,442.012C253.096,441.47 253.096,441.47 254.25,440.918C254.941,440.583 255.633,440.248 256.345,439.902C258.359,439.168 258.359,439.168 262.359,439.168C262.985,444.146 260.844,447.335 258.234,451.355C257.794,452.046 257.354,452.737 256.901,453.448C251.267,462.1 244.823,470.13 238.359,478.168C237.543,479.199 236.727,480.23 235.887,481.293C228.427,490.607 220.496,499.864 211.309,507.523C209.944,508.675 208.615,509.869 207.316,511.094C184.61,532.471 156.042,549.168 127.43,561.273C126.097,561.849 124.773,562.446 123.461,563.067C116.17,566.491 108.537,568.95 100.904,571.487C98.494,572.29 96.089,573.105 93.684,573.922C86.354,576.383 79.193,578.694 71.519,579.839C69.362,580.129 69.362,580.129 67.305,580.708C64.331,581.411 61.4,581.226 58.359,581.168L58.359,583.168C15.002,589.89 -29.147,593.038 -72.641,585.168C-72.971,584.838 -73.301,584.508 -73.641,584.168C-76.016,583.863 -78.384,583.601 -80.766,583.355C-88.27,582.495 -95.353,580.868 -102.613,578.752C-104.825,578.115 -107.044,577.506 -109.266,576.902C-124.143,572.852 -138.924,568.364 -152.613,561.129C-155.085,559.957 -157.618,559.125 -160.203,558.23C-176.89,551.924 -192.271,541.613 -206.641,531.168C-207.693,530.422 -208.744,529.675 -209.828,528.906C-217.661,523.226 -224.673,516.853 -231.641,510.168C-232.591,509.271 -233.541,508.374 -234.52,507.449C-246.001,496.343 -255.088,483.596 -263.641,470.168C-264.051,469.532 -264.462,468.896 -264.885,468.24C-269.524,461.014 -273.377,454.21 -275.82,445.91C-276.59,443.336 -277.523,440.948 -278.578,438.48C-282.534,428.803 -285.46,418.438 -287.281,408.148C-287.611,406.171 -287.611,406.171 -288.152,404.277C-288.943,400.861 -288.845,397.396 -288.879,393.906C-288.889,393.091 -288.898,392.277 -288.909,391.437C-289.429,336.772 -272.304,295.008 -236.63,253.66C-234.792,251.523 -232.983,249.37 -231.19,247.195C-222.629,236.853 -213.176,227.433 -203.658,217.979C-200.877,215.217 -198.104,212.446 -195.332,209.674C-193.545,207.891 -191.757,206.11 -189.969,204.328C-189.151,203.511 -188.333,202.695 -187.49,201.853C-183.248,197.645 -178.939,193.585 -174.386,189.713C-172.6,188.132 -170.964,186.465 -169.328,184.73C-164.88,180.253 -159.831,176.728 -154.641,173.168C-153.878,172.642 -153.116,172.116 -152.331,171.575C-137.274,161.229 -122.432,152.194 -105.266,145.73C-101.51,144.298 -97.798,142.835 -94.141,141.168C-81.023,135.234 -67.98,131.448 -53.828,129.012C-50.642,128.426 -47.589,127.588 -44.48,126.676C-38.122,124.9 -31.757,124.201 -25.203,123.543C-22.913,123.303 -20.622,123.061 -18.332,122.816C-17.334,122.715 -16.335,122.614 -15.307,122.509C-12.734,122.234 -12.734,122.234 -10.642,121.662C-0.603,119.185 10.555,119.965 20.859,119.98C21.978,119.981 21.978,119.981 23.119,119.982C35.29,120.009 47.298,120.402 59.359,122.168C60.217,122.292 61.075,122.415 61.959,122.542C89.938,126.765 114.918,137.929 132.685,160.88C140.552,171.685 148.423,183.959 151.785,196.98C152.342,199.102 153.05,201.068 153.859,203.105C157.227,211.891 159.011,220.84 160.047,230.168C160.237,231.869 160.237,231.869 160.431,233.605C161.433,243.691 161.627,253.726 161.609,263.855C161.608,264.99 161.608,264.99 161.607,266.147C161.545,286.982 161.545,286.982 159.359,289.168C159.059,291.164 158.795,293.165 158.547,295.168C157.661,301.132 156.175,305.871 153.359,311.168C153.011,311.882 152.663,312.596 152.305,313.332C143.838,329.856 128.696,342.056 111.281,348.266C104.873,349.996 98.528,350.477 91.922,350.605C91.164,350.628 90.407,350.65 89.626,350.674C84.358,350.651 81.627,349.455 77.359,346.168C75.56,345.144 73.748,344.143 71.922,343.168C68.897,341.55 65.961,339.92 63.047,338.105C49.463,330.33 32.451,327.519 17.359,324.168C16.533,323.96 15.707,323.753 14.855,323.539C7.501,321.806 -0.12,321.529 -7.641,322.168C-15.586,330.114 -16.924,346.524 -17.641,357.168C-17.735,358.278 -17.829,359.388 -17.926,360.531C-18.476,372.086 -15.134,383.502 -7.426,392.258C-6.837,392.888 -6.248,393.519 -5.641,394.168C-5.165,394.767 -4.689,395.367 -4.199,395.984C3.277,404.71 16.448,409.582 27.359,412.168C28.103,412.345 28.848,412.522 29.614,412.705C35.895,414.08 41.871,414.474 48.289,414.469C49.821,414.477 49.821,414.477 51.383,414.485C54.667,414.497 57.951,414.491 61.234,414.48C62.35,414.48 63.466,414.479 64.615,414.478C93.42,414.989 93.42,414.989 121.359,409.168C123.604,408.684 125.854,408.227 128.109,407.793C134.249,406.493 139.661,404.76 145.359,402.168C145.982,401.899 146.605,401.629 147.247,401.352C157.319,396.994 165.899,392.245 174.359,385.168C175.521,384.25 175.521,384.25 176.707,383.313C183.704,377.525 188.936,370.383 194.359,363.168C195.177,362.095 195.994,361.022 196.813,359.949C199.018,357.039 201.192,354.107 203.359,351.168C203.964,350.374 204.569,349.58 205.191,348.762C216.683,333.198 221.991,316.449 223.965,297.336C224.359,294.168 224.359,294.168 225.359,292.168C225.574,287.838 225.545,283.504 225.545,279.169C225.547,277.034 225.565,274.899 225.584,272.764C225.632,260.935 224.412,249.536 221.918,237.953C221.464,235.692 221.071,233.441 220.707,231.164C219.542,223.942 218.311,217.103 215.578,210.281C214.587,207.749 213.69,205.226 212.828,202.648C203.856,175.868 190.87,150.825 171.359,130.168C170.612,129.344 169.864,128.521 169.094,127.672C162.321,120.484 154.698,115.333 146.359,110.168C145.289,109.494 144.22,108.82 143.117,108.125C136.744,104.243 130.432,101.5 123.359,99.168C122.044,98.675 120.731,98.176 119.422,97.668C118.068,97.167 116.714,96.667 115.359,96.168C114.595,95.871 113.831,95.575 113.043,95.27C97.069,89.457 79.964,86.861 63.086,85.527C59.359,85.168 59.359,85.168 57.359,84.168C-5.988,76.96 -72.142,81.453 -133.453,99.168C-134.329,99.415 -135.205,99.663 -136.107,99.918C-141.397,101.435 -146.51,103.181 -151.641,105.168C-153.39,105.795 -155.14,106.421 -156.891,107.043C-176.598,114.224 -191.346,125.071 -203.641,142.168C-204.2,142.899 -204.76,143.63 -205.336,144.383C-219.091,162.599 -229.423,182.849 -239.641,203.168C-240.242,204.348 -240.242,204.348 -240.855,205.552C-242.619,209.028 -244.276,212.527 -245.783,216.122C-246.879,218.737 -248.006,221.338 -249.129,223.941C-253.623,234.424 -258.06,244.863 -261.714,255.672C-262.994,259.434 -264.424,263.022 -266.141,266.605C-269.138,272.902 -271.172,279.504 -273.309,286.129C-274.302,289.196 -275.39,292.194 -276.641,295.168L-279.641,295.168C-282.778,282.201 -282.878,269.446 -282.891,256.168C-282.893,254.773 -282.893,254.773 -282.896,253.349C-282.898,235.381 -282.159,217.643 -277.641,200.168C-277.39,198.463 -277.16,196.754 -276.953,195.043C-275.958,188.817 -274.16,182.917 -272.266,176.918C-271.973,175.983 -271.681,175.049 -271.38,174.085C-269.772,169.112 -267.94,164.477 -265.511,159.849C-264.471,157.84 -263.667,155.791 -262.891,153.668C-254.188,131.538 -240.827,111.494 -224.641,94.168C-223.224,92.543 -221.807,90.918 -220.391,89.293C-207.521,75.011 -192.306,63.431 -176.57,52.515C-174.054,50.759 -171.569,48.959 -169.078,47.168C-165.765,44.852 -162.458,42.964 -158.805,41.246C-156.166,39.931 -153.67,38.432 -151.141,36.918C-144.456,32.973 -137.556,29.536 -130.588,26.127C-128.538,25.118 -126.5,24.086 -124.461,23.055C-121.605,21.625 -118.746,20.323 -115.766,19.168C-112.042,17.718 -112.042,17.718 -108.344,16.203C-85.416,6.624 -61.742,3.831 -37.101,2.402C-34.734,2.247 -34.734,2.247 -32.875,1.688C-22.36,-0.759 -10.755,0.005 0,0Z" style="fill:rgb(95,110,93);fill-opacity:0.47;fill-rule:nonzero;"/>
    </g>
    <g id="HATCH" transform="matrix(-0.186152,0.102242,-0.102242,-0.186152,1530.3,-338.855)">
        <path d="M5739.17,-2412.36L5696.11,-2314.24L5680.8,-2277.71L5666.72,-2240.68L5653.89,-2203.21L5642.31,-2165.33L5632.01,-2127.08L5625.5,-2099.44L5619.85,-2071.61L5615.06,-2043.62L5611.13,-2015.5L5609.62,-2001.42L5608.59,-1987.3L5608.03,-1973.16L5607.94,-1959L5608.33,-1944.85L5609.19,-1930.72L5610.53,-1916.63L5612.34,-1902.59L5614.61,-1888.62L5617.36,-1874.73L5620.57,-1860.94L5624.24,-1847.27L5628.36,-1833.73L5632.97,-1820.22L5638.01,-1806.87L5643.47,-1793.68L5649.35,-1780.67L5655.65,-1767.86L5662.35,-1755.26L5669.45,-1742.88L5676.95,-1730.74L5684.83,-1718.84L5693.09,-1707.2L5708.93,-1686.31L5725.42,-1665.94L5742.55,-1646.1L5760.3,-1626.81L5778.66,-1608.1L5797.59,-1589.97L5817.64,-1571.99L5838.28,-1554.68L5859.48,-1538.07L5881.23,-1522.18L5903.49,-1507.02L5926.24,-1492.61L5935.21,-1487.34L5944.34,-1482.38L5953.64,-1477.71L5963.08,-1473.36L5972.66,-1469.33L5982.38,-1465.61L5992.2,-1462.22L6002.14,-1459.16L6012.17,-1456.43L6022.29,-1454.03L6032.48,-1451.97L6042.74,-1450.25L6048.02,-1449.54L6053.31,-1449L6058.62,-1448.64L6063.94,-1448.44L6069.27,-1448.42L6074.59,-1448.57L6077.26,-1448.74L6079.93,-1449L6082.59,-1449.34L6085.23,-1449.79L6087.86,-1450.32L6090.47,-1450.94L6093.05,-1451.65L6095.61,-1452.45L6098.14,-1453.33L6100.64,-1454.31L6103.1,-1455.37L6105.52,-1456.51L6107.91,-1457.74L6110.25,-1459.04L6112.54,-1460.43L6114.79,-1461.89L6116.98,-1463.44L6119.12,-1465.05L6121.2,-1466.74L6123.22,-1468.5L6125.18,-1470.33L6127.08,-1472.22L6128.91,-1474.18L6130.67,-1476.2L6132.36,-1478.28L6133.98,-1480.42L6135.52,-1482.61L6136.99,-1484.85L6138.38,-1487.14L6139.72,-1489.54L6140.98,-1491.99L6142.15,-1494.47L6143.24,-1497L6144.24,-1499.56L6145.14,-1502.15L6145.96,-1504.77L6146.68,-1507.42L6147.32,-1510.1L6147.86,-1512.79L6148.3,-1515.5L6148.65,-1518.23L6148.91,-1520.96L6149.07,-1523.7L6149.13,-1526.45L6149.1,-1529.2L6148.98,-1531.94L6148.76,-1534.68L6148.44,-1537.41L6148.03,-1540.13L6147.53,-1542.83L6146.93,-1545.51L6146.24,-1548.17L6145.45,-1550.8L6139.3,-1569.32L6132.59,-1587.64L6125.34,-1605.75L6117.56,-1623.64L6109.26,-1641.3L6095.39,-1670.57L6082.25,-1700.17L6069.84,-1730.08L6067.46,-1736.32L6065.28,-1742.63L6063.32,-1749.01L6061.57,-1755.45L6060.04,-1761.95L6058.72,-1768.49L6057.62,-1775.08L6056.74,-1781.69L6056.07,-1788.33L6055.63,-1795L6055.41,-1801.67L6055.41,-1808.34L6055.63,-1815.01L6056.07,-1821.67L6056.73,-1828.32L6057.61,-1834.93L6058.71,-1841.52L6061.79,-1856.79L6065.38,-1871.95L6069.48,-1886.99L6074.08,-1901.87L6079.18,-1916.6L6084.78,-1931.14L6090.86,-1945.48L6097.43,-1959.61L6098.84,-1962.66L6100.15,-1965.76L6101.36,-1968.9L6102.45,-1972.08L6103.44,-1975.3L6104.32,-1978.55L6105.08,-1981.82L6105.73,-1985.12L6106.27,-1988.44L6106.7,-1991.78L6107.01,-1995.13L6107.2,-1998.49L6107.28,-2001.85L6107.25,-2005.22L6107.1,-2008.58L6106.84,-2011.93L6106.46,-2015.27L6105.97,-2018.6L6105.36,-2021.91L6104.82,-2024.36L6104.2,-2026.79L6103.5,-2029.19L6102.71,-2031.57L6101.85,-2033.92L6100.9,-2036.25L6099.87,-2038.53L6098.77,-2040.78L6097.59,-2042.99L6096.33,-2045.16L6095,-2047.29L6093.6,-2049.37L6092.12,-2051.39L6090.58,-2053.37L6088.97,-2055.29L6087.3,-2057.16L6085.56,-2058.96L6083.76,-2060.71L6081.9,-2062.39L6079.99,-2064.01L6078.02,-2065.56L6076,-2067.05L6073.93,-2068.46L6071.81,-2069.8L6069.65,-2071.07L6067.44,-2072.26L6065.19,-2073.37L6062.91,-2074.41L6060.6,-2075.37L6058.25,-2076.25L6055.87,-2077.04L6053.47,-2077.76L6051.04,-2078.39L6048.6,-2078.94L6046.13,-2079.4L6043.65,-2079.78L6041.16,-2080.07L6038.66,-2080.28L6036.16,-2080.4L6033.65,-2080.43L6031.15,-2080.38L6028.65,-2080.25L6026.15,-2080.02L6023.66,-2079.71L6021.19,-2079.32L6018.72,-2078.84L6007.87,-2076.34L5997.1,-2073.47L5986.44,-2070.23L5975.89,-2066.64L5965.47,-2062.69L5955.19,-2058.4L5945.06,-2053.75L5935.1,-2048.77L5924.84,-2043.57L5914.46,-2038.62L5903.97,-2033.93L5903.95,-2038.4L5904.07,-2042.87L5904.35,-2047.34L5904.78,-2051.79L5906.85,-2067.73L5909.43,-2083.59L5912.53,-2099.36L5916.15,-2115.02L5920.27,-2130.55L5924.89,-2145.95L5930.01,-2161.18L5935.63,-2176.24L5937.88,-2181.71L5940.32,-2187.1L5942.93,-2192.41L5945.73,-2197.62L5948.7,-2202.73L5951.85,-2207.74L5955.17,-2212.64L5958.65,-2217.43L5962.29,-2222.09L5966.09,-2226.63L5970.04,-2231.03L5974.14,-2235.3L5978.38,-2239.43L5982.76,-2243.41L5987.27,-2247.23L5991.91,-2250.9L5996.67,-2254.41L6001.55,-2257.76L6005.76,-2260.45L6010.05,-2263L6014.41,-2265.41L6018.86,-2267.68L6023.37,-2269.8L6027.95,-2271.79L6032.59,-2273.62L6041.44,-2276.79L6050.38,-2279.66L6059.42,-2282.22L6068.54,-2284.48L6077.73,-2286.43L6086.99,-2288.06L6096.29,-2289.39L6105.63,-2290.39L6115,-2291.09L6124.39,-2291.46L6133.78,-2291.52L6143.18,-2291.26L6152.55,-2290.69L6161.91,-2289.8L6171.22,-2288.59L6180.49,-2287.07L6189.71,-2285.24L6198.86,-2283.1L6207.93,-2280.65L6216.91,-2277.9L6225.8,-2274.84L6234.57,-2271.49L6253.26,-2263.61L6271.66,-2255.1L6289.76,-2245.97L6307.54,-2236.22L6324.97,-2225.87L6342.04,-2214.92L6358.73,-2203.4L6364.28,-2199.29L6369.69,-2194.99L6374.97,-2190.53L6380.09,-2185.89L6385.06,-2181.09L6389.87,-2176.12L6394.52,-2171.01L6399,-2165.75L6403.3,-2160.34L6407.43,-2154.8L6411.37,-2149.12L6415.12,-2143.32L6420.02,-2135.17L6424.65,-2126.87L6428.99,-2118.41L6433.05,-2109.82L6436.82,-2101.09L6440.3,-2092.24L6443.48,-2083.28L6446.36,-2074.22L6448.94,-2065.07L6451.21,-2055.84L6453.17,-2046.54L6454.82,-2037.18L6456.16,-2027.77L6457.18,-2018.32L6457.89,-2008.84L6458.28,-1999.34L6458.35,-1989.83L6458.11,-1980.33L6457.54,-1970.84L6453.91,-1931.25L6449.02,-1891.8L6442.89,-1852.53L6435.52,-1813.46L6426.92,-1774.65L6417.09,-1736.13L6406.05,-1697.94L6393.01,-1657.77L6378.63,-1618.07L6362.93,-1578.86L6321.35,-1475.21L6283.17,-1370.27L6248.42,-1264.14L6230.17,-1201.8L6213.85,-1138.92L6199.48,-1075.57L6193.4,-1074.36L6189.98,-1073.58L6186.6,-1072.68L6183.25,-1071.66L6179.94,-1070.53L6176.66,-1069.28L6173.43,-1067.92L6170.26,-1066.45L6167.13,-1064.87L6164.06,-1063.18L6161.05,-1061.39L6158.11,-1059.49L6155.23,-1057.5L6152.42,-1055.4L6149.69,-1053.21L6147.03,-1050.93L6144.46,-1048.55L6141.97,-1046.09L6139.57,-1043.54L6137.25,-1040.91L6135.03,-1038.21L6132.9,-1035.42L6130.87,-1032.57L6128.94,-1029.65L6127.12,-1026.66L6125.4,-1023.61L6123.78,-1020.5L6122.27,-1017.34L6120.88,-1014.13L6119.59,-1010.87L6118.42,-1007.57L6117.37,-1004.23L6116.43,-1000.85L6115.6,-997.449L6114.9,-994.018L6099.15,-901.188L6086.56,-807.877L6077.14,-714.193L6070.9,-620.243L6067.86,-526.136L6068,-431.98L6071.34,-337.882L6077.86,-243.952L6087.57,-150.298L6087.91,-147.851L6088.33,-145.417L6088.83,-142.998L6089.41,-140.598L6090.07,-138.218L6090.81,-135.861L6091.63,-133.531L6092.53,-131.229L6093.5,-128.959L6094.55,-126.723L6095.67,-124.522L6096.86,-122.361L6098.13,-120.241L6099.47,-118.164L6100.87,-116.133L6102.35,-114.151L6103.89,-112.219L6105.49,-110.339L6107.15,-108.514L6108.88,-106.746L6106.02,-100.983L6103.35,-95.132L6100.86,-89.197L6098.57,-83.186L6096.48,-77.105L6094.58,-70.959L6092.87,-64.755L6091.37,-58.501L6090.07,-52.201L6088.97,-45.862L6088.08,-39.492L6087.39,-33.096L6087.09,-28.991L6086.93,-24.877L6086.91,-20.761L6087.04,-16.646L6087.31,-12.538L6087.72,-8.443L6088.28,-4.364L6088.98,-0.307L6089.81,3.724L6090.79,7.722L6091.91,11.684L6093.16,15.605L6094.56,19.48L6096.08,23.303L6097.74,27.072L6099.53,30.78L6101.44,34.424L6103.48,37.998L6105.65,41.5L6107.93,44.924L6110.34,48.266L6112.85,51.522L6115.48,54.689L6118.22,57.762L6121.07,60.737L6124.02,63.612L6127.06,66.382L6130.2,69.044L6133.43,71.596L6136.75,74.033L6140.15,76.353L6143.63,78.553L6147.18,80.631L6156.99,85.919L6166.97,90.869L6177.12,95.475L6187.42,99.731L6197.86,103.633L6208.42,107.175L6219.1,110.354L6229.89,113.166L6240.76,115.608L6251.71,117.677L6262.72,119.37L6273.79,120.685L6284.89,121.621L6296.02,122.177L6307.17,122.352L6318.31,122.146L6329.44,121.56L6340.54,120.593L6351.6,119.247L6355.63,118.616L6359.63,117.847L6363.6,116.939L6367.54,115.896L6371.44,114.716L6375.3,113.403L6379.11,111.958L6382.87,110.382L6386.57,108.677L6390.22,106.845L6393.79,104.889L6397.3,102.81L6400.73,100.612L6404.08,98.297L6407.36,95.867L6410.54,93.325L6413.64,90.676L6416.64,87.921L6419.55,85.064L6422.36,82.108L6425.06,79.057L6427.65,75.915L6430.14,72.685L6432.51,69.371L6434.77,65.977L6436.91,62.508L6438.93,58.966L6440.82,55.357L6442.59,51.685L6444.23,47.954L6445.74,44.169L6447.12,40.333L6448.37,36.453L6449.48,32.532L6450.45,28.574L6451.29,24.586L6451.99,20.57L6452.55,16.533L6452.98,12.48L6453.26,8.413L6453.4,4.34L6453.4,0.264L6453.26,-3.809L6452.98,-7.875L6452.56,-11.929L6451.99,-15.966L6451.7,-17.816L6448.3,-33.153L6451.38,-37.238L6454.33,-41.421L6457.15,-45.698L6459.82,-50.065L6462.35,-54.516L6464.73,-59.047L6466.96,-63.653L6469.04,-68.33L6470.97,-73.072L6472.74,-77.874L6474.36,-82.732L6475.82,-87.639L6477.11,-92.591L6478.24,-97.583L6489.6,-147.415L6502.66,-196.828L6517.4,-245.766L6533.81,-294.171L6551.86,-341.987L6571.53,-389.157L6592.81,-435.626L6615.67,-481.34L6617.35,-484.697L6618.92,-488.109L6620.36,-491.571L6621.7,-495.081L6622.91,-498.633L6624,-502.225L6624.97,-505.851L6625.82,-509.508L6626.55,-513.191L6627.14,-516.897L6627.62,-520.621L6627.97,-524.358L6628.19,-528.105L6628.28,-531.858L6628.25,-535.612L6628.1,-539.362L6627.81,-543.105L6627.4,-546.837L6626.87,-550.552L6626.21,-554.248L6625.42,-557.918L6624.51,-561.561L6623.48,-565.17L6622.33,-568.743L6621.06,-572.275L6619.67,-575.762L6618.51,-578.445L6617.27,-581.11L6615.95,-583.755L6614.56,-586.377L6613.09,-588.972L6611.54,-591.537L6609.92,-594.069L6608.23,-596.565L6606.46,-599.022L6604.62,-601.436L6602.72,-603.805L6600.74,-606.125L6598.7,-608.394L6596.59,-610.609L6594.43,-612.766L6592.2,-614.865L6589.92,-616.901L6587.58,-618.874L6585.19,-620.78L6582.75,-622.618L6580.27,-624.386L6577.74,-626.082L6575.17,-627.705L6572.57,-629.254L6569.93,-630.727L6567.27,-632.123L6564.57,-633.442L6561.85,-634.683L6559.11,-635.846L6556.36,-636.931L6553.59,-637.936L6550.81,-638.864L6506.29,-654.217L6504.78,-662.757L6501.97,-680.491L6499.76,-698.31L6498.14,-716.193L6497.13,-734.121L6496.71,-752.072L6496.9,-770.027L6497.68,-787.966L6499.07,-805.868L6501.06,-823.714L6503.64,-841.483L6506.82,-859.155L6510.59,-876.712L6514.94,-894.132L6519.88,-911.396L6525.39,-928.485L6526.36,-931.511L6527.24,-934.567L6528,-937.652L6528.66,-940.761L6529.22,-943.891L6529.66,-947.038L6530,-950.198L6530.23,-953.368L6530.35,-956.545L6530.37,-959.723L6530.27,-962.9L6530.07,-966.072L6529.76,-969.235L6529.34,-972.386L6528.81,-975.52L6528.18,-978.635L6527.44,-981.726L6526.6,-984.79L6525.65,-987.824L6524.6,-990.824L6523.44,-993.785L6522.19,-996.706L6520.84,-999.582L6519.39,-1002.41L6517.84,-1005.19L6516.2,-1007.91L6514.47,-1010.58L6512.65,-1013.18L6510.74,-1015.72L6508.74,-1018.2L6506.66,-1020.6L6504.51,-1022.93L6502.27,-1025.19L6499.95,-1027.37L6497.57,-1029.47L6495.11,-1031.49L6492.59,-1033.42L6490,-1035.26L6487.35,-1037.02L6484.64,-1038.68L6481.88,-1040.25L6509.66,-1129.94L6523.86,-1173.18L6539.5,-1215.93L6556.56,-1258.12L6575.02,-1299.73L6594.87,-1340.68L6616.08,-1380.96L6644.79,-1435.38L6671.72,-1490.7L6696.84,-1546.87L6720.14,-1603.81L6741.58,-1661.49L6761.15,-1719.82L6778.82,-1778.76L6793.83,-1835.33L6807.06,-1892.34L6818.48,-1949.75L6828.1,-2007.48L6835.89,-2065.49L6837.84,-2084.67L6839.16,-2103.9L6839.86,-2123.16L6839.93,-2142.44L6839.36,-2161.71L6838.17,-2180.95L6836.35,-2200.14L6833.9,-2219.26L6830.83,-2238.29L6827.14,-2257.21L6822.83,-2275.99L6817.92,-2294.63L6811.73,-2315.32L6804.87,-2335.8L6797.35,-2356.04L6789.17,-2376.03L6780.34,-2395.74L6770.88,-2415.15L6760.79,-2434.24L6750.08,-2452.99L6738.77,-2471.39L6726.86,-2489.4L6714.37,-2507.02L6701.32,-2524.22L6687.71,-2540.99L6678.26,-2551.87L6668.45,-2562.43L6658.29,-2572.65L6647.78,-2582.52L6636.95,-2592.03L6625.81,-2601.17L6614.36,-2609.93L6602.62,-2618.29L6590.61,-2626.25L6578.34,-2633.81L6565.81,-2640.94L6553.06,-2647.65L6540.08,-2653.92L6526.9,-2659.75L6513.53,-2665.13L6499.98,-2670.05L6479.67,-2676.66L6459.14,-2682.56L6438.41,-2687.75L6417.52,-2692.22L6396.49,-2695.96L6375.34,-2698.97L6354.1,-2701.25L6332.79,-2702.79L6311.44,-2703.59L6291.55,-2703.67L6271.66,-2703.12L6251.8,-2701.94L6231.99,-2700.13L6212.24,-2697.69L6192.59,-2694.63L6173.04,-2690.94L6104.53,-2675.9L6104.65,-2678.71L6104.67,-2681.51L6104.59,-2684.32L6104.42,-2687.12L6104.15,-2689.91L6103.79,-2692.7L6103.33,-2695.47L6102.78,-2698.22L6102.12,-2700.95L6101.38,-2703.66L6100.55,-2706.34L6099.62,-2708.99L6098.6,-2711.6L6097.49,-2714.18L6096.3,-2716.72L6095.01,-2719.22L6093.65,-2721.67L6092.19,-2724.07L6090.66,-2726.42L6089.05,-2728.72L6087.35,-2730.96L6085.59,-2733.14L6083.74,-2735.26L6081.83,-2737.31L6079.85,-2739.3L6077.79,-2741.22L6075.68,-2743.06L6073.5,-2744.83L6071.26,-2746.53L6068.97,-2748.14L6066.62,-2749.68L6064.22,-2751.14L6061.77,-2752.51L6059.27,-2753.8L6056.74,-2754.99L6054.16,-2756.11L6051.54,-2757.13L6048.9,-2758.06L6046.22,-2758.9L6043.51,-2759.65L6040.78,-2760.3L6038.03,-2760.86L6035.26,-2761.32L6032.48,-2761.69L6029.68,-2761.96L6026.88,-2762.14L6024.08,-2762.22L6021.27,-2762.2L6018.46,-2762.08L6015.66,-2761.87L6012.87,-2761.57L6010.1,-2761.16L6007.33,-2760.66L6004.59,-2760.07L6001.87,-2759.38L5999.17,-2758.6L5996.5,-2757.73L5993.87,-2756.76L5988.03,-2754.4L5982.28,-2751.83L5976.61,-2749.07L5971.05,-2746.12L5965.59,-2742.97L5960.24,-2739.65L5955.01,-2736.14L5949.9,-2732.45L5944.92,-2728.59L5940.08,-2724.57L5935.37,-2720.38L5930.81,-2716.03L5926.41,-2711.53L5922.16,-2706.87L5918.07,-2702.08L5891.56,-2668.75L5866.14,-2634.47L5841.87,-2599.31L5818.8,-2563.32L5796.95,-2526.57L5776.38,-2489.11L5757.11,-2451.02L5739.17,-2412.36Z" style="fill:rgb(95,110,93);fill-opacity:0.47;"/>
    </g>
</svg>
