<?xml version="1.0" encoding="UTF-8" standalone="no"?>
<!DOCTYPE svg PUBLIC "-//W3C//DTD SVG 1.1//EN" "http://www.w3.org/Graphics/SVG/1.1/DTD/svg11.dtd">
<svg width="100%" height="100%" viewBox="0 0 32 64" version="1.1" xmlns="http://www.w3.org/2000/svg" xmlns:xlink="http://www.w3.org/1999/xlink" xml:space="preserve" xmlns:serif="http://www.serif.com/" style="fill-rule:evenodd;clip-rule:evenodd;stroke-linejoin:round;stroke-miterlimit:2;">
    <g id="Page-1">
        <g id="aztec">
            <path id="Combined-Shape" d="M0,28L20,28L20,16L16,16L16,24L4,24L4,4L32,4L32,32L28,32L28,8L8,8L8,20L12,20L12,12L24,12L24,32L0,32L0,28ZM12,36L32,36L32,40L16,40L16,64L0,64L0,60L12,60L12,36ZM28,48L24,48L24,60L32,60L32,64L20,64L20,44L32,44L32,56L28,56L28,48ZM0,36L8,36L8,56L0,56L0,52L4,52L4,40L0,40L0,36Z" style="fill:rgb(113,57,69);"/>
        </g>
    </g>
</svg>
